<mxfile host="app.diagrams.net" modified="2021-03-05T09:21:40.481Z" agent="5.0 (Macintosh; Intel Mac OS X 11_0_1) AppleWebKit/537.36 (KHTML, like Gecko) Chrome/89.0.4389.72 Safari/537.36" etag="ahx4gRtET0yLYD7dx36U" version="13.6.6" type="github">
  <diagram id="C5RBs43oDa-KdzZeNtuy" name="Page-1">
    <mxGraphModel dx="985" dy="1908" grid="1" gridSize="10" guides="1" tooltips="1" connect="1" arrows="1" fold="1" page="1" pageScale="1" pageWidth="827" pageHeight="1169" math="0" shadow="0">
      <root>
        <mxCell id="WIyWlLk6GJQsqaUBKTNV-0" />
        <mxCell id="WIyWlLk6GJQsqaUBKTNV-1" parent="WIyWlLk6GJQsqaUBKTNV-0" />
        <mxCell id="WIyWlLk6GJQsqaUBKTNV-2" value="" style="rounded=0;html=1;jettySize=auto;orthogonalLoop=1;fontSize=11;endArrow=block;endFill=0;endSize=8;strokeWidth=1;shadow=0;labelBackgroundColor=none;edgeStyle=orthogonalEdgeStyle;" parent="WIyWlLk6GJQsqaUBKTNV-1" source="WIyWlLk6GJQsqaUBKTNV-3" target="WIyWlLk6GJQsqaUBKTNV-6" edge="1">
          <mxGeometry relative="1" as="geometry" />
        </mxCell>
        <mxCell id="WIyWlLk6GJQsqaUBKTNV-3" value="浏览器地址栏输入URL" style="rounded=1;whiteSpace=wrap;html=1;fontSize=12;glass=0;strokeWidth=1;shadow=0;" parent="WIyWlLk6GJQsqaUBKTNV-1" vertex="1">
          <mxGeometry x="220" y="50" width="120" height="40" as="geometry" />
        </mxCell>
        <mxCell id="WIyWlLk6GJQsqaUBKTNV-4" value="Yes" style="rounded=0;html=1;jettySize=auto;orthogonalLoop=1;fontSize=11;endArrow=block;endFill=0;endSize=8;strokeWidth=1;shadow=0;labelBackgroundColor=none;edgeStyle=orthogonalEdgeStyle;" parent="WIyWlLk6GJQsqaUBKTNV-1" source="WIyWlLk6GJQsqaUBKTNV-6" target="WIyWlLk6GJQsqaUBKTNV-10" edge="1">
          <mxGeometry y="20" relative="1" as="geometry">
            <mxPoint as="offset" />
          </mxGeometry>
        </mxCell>
        <mxCell id="WIyWlLk6GJQsqaUBKTNV-5" value="已缓存" style="edgeStyle=orthogonalEdgeStyle;rounded=0;html=1;jettySize=auto;orthogonalLoop=1;fontSize=11;endArrow=block;endFill=0;endSize=8;strokeWidth=1;shadow=0;labelBackgroundColor=none;" parent="WIyWlLk6GJQsqaUBKTNV-1" source="WIyWlLk6GJQsqaUBKTNV-6" edge="1">
          <mxGeometry y="10" relative="1" as="geometry">
            <mxPoint as="offset" />
            <mxPoint x="410" y="210" as="targetPoint" />
            <Array as="points">
              <mxPoint x="400" y="210" />
            </Array>
          </mxGeometry>
        </mxCell>
        <mxCell id="6xM9E8aqBEME4XtWhoCc-11" style="edgeStyle=orthogonalEdgeStyle;rounded=0;orthogonalLoop=1;jettySize=auto;html=1;entryX=1;entryY=0.5;entryDx=0;entryDy=0;" edge="1" parent="WIyWlLk6GJQsqaUBKTNV-1" source="WIyWlLk6GJQsqaUBKTNV-6" target="6xM9E8aqBEME4XtWhoCc-5">
          <mxGeometry relative="1" as="geometry" />
        </mxCell>
        <mxCell id="WIyWlLk6GJQsqaUBKTNV-6" value="查看缓存" style="rhombus;whiteSpace=wrap;html=1;shadow=0;fontFamily=Helvetica;fontSize=12;align=center;strokeWidth=1;spacing=6;spacingTop=-4;" parent="WIyWlLk6GJQsqaUBKTNV-1" vertex="1">
          <mxGeometry x="230" y="170" width="100" height="80" as="geometry" />
        </mxCell>
        <mxCell id="6xM9E8aqBEME4XtWhoCc-21" style="edgeStyle=orthogonalEdgeStyle;rounded=0;orthogonalLoop=1;jettySize=auto;html=1;entryX=0.5;entryY=0;entryDx=0;entryDy=0;" edge="1" parent="WIyWlLk6GJQsqaUBKTNV-1" source="WIyWlLk6GJQsqaUBKTNV-7" target="6xM9E8aqBEME4XtWhoCc-20">
          <mxGeometry relative="1" as="geometry" />
        </mxCell>
        <mxCell id="6xM9E8aqBEME4XtWhoCc-24" style="edgeStyle=orthogonalEdgeStyle;rounded=0;orthogonalLoop=1;jettySize=auto;html=1;entryX=0.375;entryY=-0.1;entryDx=0;entryDy=0;entryPerimeter=0;" edge="1" parent="WIyWlLk6GJQsqaUBKTNV-1" source="WIyWlLk6GJQsqaUBKTNV-7" target="WIyWlLk6GJQsqaUBKTNV-12">
          <mxGeometry relative="1" as="geometry" />
        </mxCell>
        <mxCell id="WIyWlLk6GJQsqaUBKTNV-7" value="检查是否新鲜" style="rounded=1;whiteSpace=wrap;html=1;fontSize=12;glass=0;strokeWidth=1;shadow=0;" parent="WIyWlLk6GJQsqaUBKTNV-1" vertex="1">
          <mxGeometry x="414" y="185" width="116" height="40" as="geometry" />
        </mxCell>
        <mxCell id="6xM9E8aqBEME4XtWhoCc-28" style="edgeStyle=orthogonalEdgeStyle;rounded=0;orthogonalLoop=1;jettySize=auto;html=1;" edge="1" parent="WIyWlLk6GJQsqaUBKTNV-1" source="WIyWlLk6GJQsqaUBKTNV-10" target="WIyWlLk6GJQsqaUBKTNV-11">
          <mxGeometry relative="1" as="geometry" />
        </mxCell>
        <mxCell id="WIyWlLk6GJQsqaUBKTNV-10" value="浏览器组装一个HTTP请求报文" style="rhombus;whiteSpace=wrap;html=1;shadow=0;fontFamily=Helvetica;fontSize=12;align=center;strokeWidth=1;spacing=6;spacingTop=-4;" parent="WIyWlLk6GJQsqaUBKTNV-1" vertex="1">
          <mxGeometry x="210" y="300" width="140" height="110" as="geometry" />
        </mxCell>
        <mxCell id="6xM9E8aqBEME4XtWhoCc-31" style="edgeStyle=orthogonalEdgeStyle;rounded=0;orthogonalLoop=1;jettySize=auto;html=1;entryX=0;entryY=0.5;entryDx=0;entryDy=0;" edge="1" parent="WIyWlLk6GJQsqaUBKTNV-1" source="WIyWlLk6GJQsqaUBKTNV-11" target="6xM9E8aqBEME4XtWhoCc-30">
          <mxGeometry relative="1" as="geometry" />
        </mxCell>
        <mxCell id="WIyWlLk6GJQsqaUBKTNV-11" value="打开Socket与目标地址建议建立TCP连接，进行三次握手&lt;br&gt;" style="rounded=1;whiteSpace=wrap;html=1;fontSize=12;glass=0;strokeWidth=1;shadow=0;" parent="WIyWlLk6GJQsqaUBKTNV-1" vertex="1">
          <mxGeometry x="215" y="620" width="130" height="60" as="geometry" />
        </mxCell>
        <mxCell id="WIyWlLk6GJQsqaUBKTNV-12" value="浏览器解析URL获取协议、主机、端口、path" style="rounded=1;whiteSpace=wrap;html=1;fontSize=12;glass=0;strokeWidth=1;shadow=0;" parent="WIyWlLk6GJQsqaUBKTNV-1" vertex="1">
          <mxGeometry x="380" y="310" width="130" height="50" as="geometry" />
        </mxCell>
        <mxCell id="6xM9E8aqBEME4XtWhoCc-5" value="发起新请求" style="rounded=1;whiteSpace=wrap;html=1;" vertex="1" parent="WIyWlLk6GJQsqaUBKTNV-1">
          <mxGeometry x="40" y="185" width="120" height="50" as="geometry" />
        </mxCell>
        <mxCell id="6xM9E8aqBEME4XtWhoCc-12" value="未缓存" style="text;html=1;strokeColor=none;fillColor=none;align=center;verticalAlign=middle;whiteSpace=wrap;rounded=0;" vertex="1" parent="WIyWlLk6GJQsqaUBKTNV-1">
          <mxGeometry x="180" y="185" width="40" height="20" as="geometry" />
        </mxCell>
        <mxCell id="6xM9E8aqBEME4XtWhoCc-17" value="" style="endArrow=none;dashed=1;html=1;entryX=0.16;entryY=0.55;entryDx=0;entryDy=0;entryPerimeter=0;exitX=0.408;exitY=0.025;exitDx=0;exitDy=0;exitPerimeter=0;" edge="1" parent="WIyWlLk6GJQsqaUBKTNV-1" source="WIyWlLk6GJQsqaUBKTNV-7">
          <mxGeometry width="50" height="50" relative="1" as="geometry">
            <mxPoint x="610" y="330" as="sourcePoint" />
            <mxPoint x="530" y="31.5" as="targetPoint" />
            <Array as="points">
              <mxPoint x="463" y="34" />
            </Array>
          </mxGeometry>
        </mxCell>
        <mxCell id="6xM9E8aqBEME4XtWhoCc-19" value="&lt;span&gt;检查缓存是否新鲜，HTTP头进行&lt;/span&gt;&lt;br&gt;&lt;span&gt;Expires(HTTP1.0,缓存的截止时间)，允许客户端在这个事件之前不去发送请求，和Cache-Control(资源在本地缓存多少秒)&lt;/span&gt;" style="shape=card;whiteSpace=wrap;html=1;" vertex="1" parent="WIyWlLk6GJQsqaUBKTNV-1">
          <mxGeometry x="530" y="-30" width="240" height="120" as="geometry" />
        </mxCell>
        <mxCell id="6xM9E8aqBEME4XtWhoCc-20" value="直接提供给客户端" style="rounded=1;whiteSpace=wrap;html=1;" vertex="1" parent="WIyWlLk6GJQsqaUBKTNV-1">
          <mxGeometry x="680" y="310" width="120" height="40" as="geometry" />
        </mxCell>
        <mxCell id="6xM9E8aqBEME4XtWhoCc-23" value="足够新鲜" style="text;html=1;strokeColor=none;fillColor=none;align=center;verticalAlign=middle;whiteSpace=wrap;rounded=0;" vertex="1" parent="WIyWlLk6GJQsqaUBKTNV-1">
          <mxGeometry x="590" y="180" width="70" height="20" as="geometry" />
        </mxCell>
        <mxCell id="6xM9E8aqBEME4XtWhoCc-25" value="未足够新鲜" style="text;html=1;strokeColor=none;fillColor=none;align=center;verticalAlign=middle;whiteSpace=wrap;rounded=0;" vertex="1" parent="WIyWlLk6GJQsqaUBKTNV-1">
          <mxGeometry x="480" y="260" width="70" height="20" as="geometry" />
        </mxCell>
        <mxCell id="6xM9E8aqBEME4XtWhoCc-29" value="浏览器获取IP地址：&lt;br&gt;1.浏览器缓存&lt;br&gt;2. 本机缓存&lt;br&gt;3. hosts文件&lt;br&gt;4. 路由器缓存&lt;br&gt;5. DNS缓存&lt;br&gt;6.DNS递归查询" style="shape=note;whiteSpace=wrap;html=1;backgroundOutline=1;darkOpacity=0.05;" vertex="1" parent="WIyWlLk6GJQsqaUBKTNV-1">
          <mxGeometry x="310" y="440" width="120" height="150" as="geometry" />
        </mxCell>
        <mxCell id="6xM9E8aqBEME4XtWhoCc-33" style="edgeStyle=orthogonalEdgeStyle;rounded=0;orthogonalLoop=1;jettySize=auto;html=1;entryX=0;entryY=0.5;entryDx=0;entryDy=0;" edge="1" parent="WIyWlLk6GJQsqaUBKTNV-1" source="6xM9E8aqBEME4XtWhoCc-30" target="6xM9E8aqBEME4XtWhoCc-32">
          <mxGeometry relative="1" as="geometry" />
        </mxCell>
        <mxCell id="6xM9E8aqBEME4XtWhoCc-30" value="TCP建立连接之后，发送HTTP请求" style="rounded=1;whiteSpace=wrap;html=1;" vertex="1" parent="WIyWlLk6GJQsqaUBKTNV-1">
          <mxGeometry x="405" y="620" width="145" height="60" as="geometry" />
        </mxCell>
        <mxCell id="6xM9E8aqBEME4XtWhoCc-38" style="edgeStyle=orthogonalEdgeStyle;rounded=0;orthogonalLoop=1;jettySize=auto;html=1;" edge="1" parent="WIyWlLk6GJQsqaUBKTNV-1" source="6xM9E8aqBEME4XtWhoCc-32" target="6xM9E8aqBEME4XtWhoCc-35">
          <mxGeometry relative="1" as="geometry" />
        </mxCell>
        <mxCell id="6xM9E8aqBEME4XtWhoCc-41" style="edgeStyle=orthogonalEdgeStyle;rounded=0;orthogonalLoop=1;jettySize=auto;html=1;entryX=0.5;entryY=0;entryDx=0;entryDy=0;" edge="1" parent="WIyWlLk6GJQsqaUBKTNV-1" source="6xM9E8aqBEME4XtWhoCc-32" target="6xM9E8aqBEME4XtWhoCc-40">
          <mxGeometry relative="1" as="geometry" />
        </mxCell>
        <mxCell id="6xM9E8aqBEME4XtWhoCc-32" value="HTTP请求头部是否包含缓存信息" style="rhombus;whiteSpace=wrap;html=1;" vertex="1" parent="WIyWlLk6GJQsqaUBKTNV-1">
          <mxGeometry x="660" y="605" width="110" height="90" as="geometry" />
        </mxCell>
        <mxCell id="6xM9E8aqBEME4XtWhoCc-34" value="服务器接受请求并解析，并将请求转发到服务程序&lt;br&gt;" style="text;html=1;strokeColor=none;fillColor=none;align=center;verticalAlign=middle;whiteSpace=wrap;rounded=0;" vertex="1" parent="WIyWlLk6GJQsqaUBKTNV-1">
          <mxGeometry x="550" y="620" width="120" height="20" as="geometry" />
        </mxCell>
        <mxCell id="6xM9E8aqBEME4XtWhoCc-35" value="返回304等状态码&lt;br&gt;" style="rounded=1;whiteSpace=wrap;html=1;" vertex="1" parent="WIyWlLk6GJQsqaUBKTNV-1">
          <mxGeometry x="652.5" y="460" width="125" height="50" as="geometry" />
        </mxCell>
        <mxCell id="6xM9E8aqBEME4XtWhoCc-39" value="有，并新鲜&lt;br&gt;" style="text;html=1;strokeColor=none;fillColor=none;align=center;verticalAlign=middle;whiteSpace=wrap;rounded=0;" vertex="1" parent="WIyWlLk6GJQsqaUBKTNV-1">
          <mxGeometry x="720" y="540" width="80" height="20" as="geometry" />
        </mxCell>
        <mxCell id="6xM9E8aqBEME4XtWhoCc-57" style="edgeStyle=orthogonalEdgeStyle;rounded=0;orthogonalLoop=1;jettySize=auto;html=1;" edge="1" parent="WIyWlLk6GJQsqaUBKTNV-1" source="6xM9E8aqBEME4XtWhoCc-40">
          <mxGeometry relative="1" as="geometry">
            <mxPoint x="570" y="815" as="targetPoint" />
          </mxGeometry>
        </mxCell>
        <mxCell id="6xM9E8aqBEME4XtWhoCc-40" value="处理程序读取完整请求并准备HTTP响应" style="rounded=1;whiteSpace=wrap;html=1;" vertex="1" parent="WIyWlLk6GJQsqaUBKTNV-1">
          <mxGeometry x="630" y="790" width="170" height="50" as="geometry" />
        </mxCell>
        <mxCell id="6xM9E8aqBEME4XtWhoCc-61" style="edgeStyle=orthogonalEdgeStyle;rounded=0;orthogonalLoop=1;jettySize=auto;html=1;" edge="1" parent="WIyWlLk6GJQsqaUBKTNV-1" source="6xM9E8aqBEME4XtWhoCc-42">
          <mxGeometry relative="1" as="geometry">
            <mxPoint x="360" y="815" as="targetPoint" />
          </mxGeometry>
        </mxCell>
        <mxCell id="6xM9E8aqBEME4XtWhoCc-42" value="服务器将响应报文通过TCP连接发送回浏览器" style="rounded=1;whiteSpace=wrap;html=1;" vertex="1" parent="WIyWlLk6GJQsqaUBKTNV-1">
          <mxGeometry x="414" y="790" width="150" height="50" as="geometry" />
        </mxCell>
        <mxCell id="6xM9E8aqBEME4XtWhoCc-46" style="edgeStyle=orthogonalEdgeStyle;rounded=0;orthogonalLoop=1;jettySize=auto;html=1;entryX=0.433;entryY=0;entryDx=0;entryDy=0;entryPerimeter=0;" edge="1" parent="WIyWlLk6GJQsqaUBKTNV-1" source="6xM9E8aqBEME4XtWhoCc-43" target="6xM9E8aqBEME4XtWhoCc-45">
          <mxGeometry relative="1" as="geometry" />
        </mxCell>
        <mxCell id="6xM9E8aqBEME4XtWhoCc-43" value="浏览器接收到HTTP响应根据情况选择关闭TCP连接或保留重用" style="rounded=1;whiteSpace=wrap;html=1;" vertex="1" parent="WIyWlLk6GJQsqaUBKTNV-1">
          <mxGeometry x="200" y="790" width="150" height="60" as="geometry" />
        </mxCell>
        <mxCell id="6xM9E8aqBEME4XtWhoCc-44" value="关闭操作，进行四次挥手" style="text;html=1;strokeColor=none;fillColor=none;align=center;verticalAlign=middle;whiteSpace=wrap;rounded=0;" vertex="1" parent="WIyWlLk6GJQsqaUBKTNV-1">
          <mxGeometry x="230" y="760" width="100" height="20" as="geometry" />
        </mxCell>
        <mxCell id="6xM9E8aqBEME4XtWhoCc-48" style="edgeStyle=orthogonalEdgeStyle;rounded=0;orthogonalLoop=1;jettySize=auto;html=1;" edge="1" parent="WIyWlLk6GJQsqaUBKTNV-1" source="6xM9E8aqBEME4XtWhoCc-45">
          <mxGeometry relative="1" as="geometry">
            <mxPoint x="285" y="1020" as="targetPoint" />
          </mxGeometry>
        </mxCell>
        <mxCell id="6xM9E8aqBEME4XtWhoCc-50" style="edgeStyle=orthogonalEdgeStyle;rounded=0;orthogonalLoop=1;jettySize=auto;html=1;entryX=0;entryY=0.5;entryDx=0;entryDy=0;" edge="1" parent="WIyWlLk6GJQsqaUBKTNV-1" source="6xM9E8aqBEME4XtWhoCc-45" target="6xM9E8aqBEME4XtWhoCc-49">
          <mxGeometry relative="1" as="geometry" />
        </mxCell>
        <mxCell id="6xM9E8aqBEME4XtWhoCc-45" value="浏览器检查状态码&lt;br&gt;" style="rounded=1;whiteSpace=wrap;html=1;" vertex="1" parent="WIyWlLk6GJQsqaUBKTNV-1">
          <mxGeometry x="210" y="900" width="150" height="50" as="geometry" />
        </mxCell>
        <mxCell id="6xM9E8aqBEME4XtWhoCc-47" value="响应处理&lt;br&gt;" style="rounded=1;whiteSpace=wrap;html=1;" vertex="1" parent="WIyWlLk6GJQsqaUBKTNV-1">
          <mxGeometry x="225" y="1020" width="120" height="30" as="geometry" />
        </mxCell>
        <mxCell id="6xM9E8aqBEME4XtWhoCc-55" style="edgeStyle=orthogonalEdgeStyle;rounded=0;orthogonalLoop=1;jettySize=auto;html=1;" edge="1" parent="WIyWlLk6GJQsqaUBKTNV-1" source="6xM9E8aqBEME4XtWhoCc-49">
          <mxGeometry relative="1" as="geometry">
            <mxPoint x="560" y="925" as="targetPoint" />
          </mxGeometry>
        </mxCell>
        <mxCell id="6xM9E8aqBEME4XtWhoCc-49" value="如果资源可缓存，进行缓存&lt;br&gt;" style="rounded=1;whiteSpace=wrap;html=1;" vertex="1" parent="WIyWlLk6GJQsqaUBKTNV-1">
          <mxGeometry x="423" y="902.5" width="97" height="45" as="geometry" />
        </mxCell>
        <mxCell id="6xM9E8aqBEME4XtWhoCc-51" value="200" style="text;html=1;strokeColor=none;fillColor=none;align=center;verticalAlign=middle;whiteSpace=wrap;rounded=0;" vertex="1" parent="WIyWlLk6GJQsqaUBKTNV-1">
          <mxGeometry x="365" y="890" width="55" height="20" as="geometry" />
        </mxCell>
        <mxCell id="6xM9E8aqBEME4XtWhoCc-56" style="edgeStyle=orthogonalEdgeStyle;rounded=0;orthogonalLoop=1;jettySize=auto;html=1;" edge="1" parent="WIyWlLk6GJQsqaUBKTNV-1" source="6xM9E8aqBEME4XtWhoCc-53">
          <mxGeometry relative="1" as="geometry">
            <mxPoint x="680" y="922.5" as="targetPoint" />
          </mxGeometry>
        </mxCell>
        <mxCell id="6xM9E8aqBEME4XtWhoCc-53" value="资源解码，如gzip" style="rounded=1;whiteSpace=wrap;html=1;" vertex="1" parent="WIyWlLk6GJQsqaUBKTNV-1">
          <mxGeometry x="562.5" y="902.5" width="90" height="40" as="geometry" />
        </mxCell>
        <mxCell id="6xM9E8aqBEME4XtWhoCc-54" value="根据不同的资源类型进行相应处理" style="rounded=1;whiteSpace=wrap;html=1;" vertex="1" parent="WIyWlLk6GJQsqaUBKTNV-1">
          <mxGeometry x="680" y="890" width="120" height="60" as="geometry" />
        </mxCell>
      </root>
    </mxGraphModel>
  </diagram>
</mxfile>
